# xmcd
#
# Track frame offsets: 
#        150
#        12575
#        24851
#        37071
#        50553
#        71551
#        82618
#        94702
#        108120
#        120811
#        133471
#        146042
#        155631
#        167602
#        181533
#        191618
#        204149
#
# Disc length: 2877 seconds
#
# Revision: 3
# Processed by: cddbd v1.5.2PL0 Copyright (c) Steve Scherf et al.
# Submitted via: ExactAudioCopyFreeDBPlugin 1.0
#
DISCID=d50b3b11
DTITLE=Various Artist - Rolling Stone - Country Roots
DYEAR=2012
DGENRE=Country
TTITLE0=Johnny Cash - I Walk The Line
TTITLE1=Patsy Cline - Crazy
TTITLE2=Hank Williams Sr. - Your Cheatin' Heart
TTITLE3=Loretta Lynn - Coal Miner's Daughter
TTITLE4=Marty Robbins - El Paso
TTITLE5=Roger Miller - King Of The Road
TTITLE6=Tammy Wynette - Stand By Your Man
TTITLE7=Ray Price - Heartaches By The Number
TTITLE8=Patsy Cline - I Fall To Pieces
TTITLE9=Johnny Horton - North To Alaska
TTITLE10=Hank Williams Sr. - I'm So Lonsome I Could Cry
TTITLE11=Bill Monroe - Blue Moon Of Kentucky
TTITLE12=Brenda Lee - I'm Sorry
TTITLE13=Glen Campbell - Wichita Lineman
TTITLE14=Kitty Wells - I Can't Stop Loving You
TTITLE15=George Jones - White Lightning
TTITLE16=Tennessee Ernie Ford - Sixteen Tons
EXTD=YEAR: 2008
EXTT0=
EXTT1=
EXTT2=
EXTT3=
EXTT4=
EXTT5=
EXTT6=
EXTT7=
EXTT8=
EXTT9=
EXTT10=
EXTT11=
EXTT12=
EXTT13=
EXTT14=
EXTT15=
EXTT16=
PLAYORDER=
